# xmcd
#
# Track frame offsets: 
#        150
#        18915
#        38074
#        56453
#        76197
#        94359
#        112981
#        129385
#        148518
#        167482
#
# Disc length: 2506 seconds
#
# Revision: 0
# Processed by: cddbd v1.5.2PL0 Copyright (c) Steve Scherf et al.
# Submitted via: ExactAudioCopy v0.95b4
#
DISCID=7309c80a
DTITLE=นกน้อย อุไรพร - ดี.เจ. ใจเหงา
DYEAR=2007
DGENRE=Country
TTITLE0=ดี.เจ.ใจเหงา
TTITLE1=บังสุกุลหัวใจ
TTITLE2=จตุคามรุ่นห้ามเบิก
TTITLE3=แฮงกอดแฮงเหงา
TTITLE4=นกน้อย
TTITLE5=ลมหยอกใจ
TTITLE6=ครูก็คน
TTITLE7=ปฏิวัติใจ
TTITLE8=พรรคใจรักใจ
TTITLE9=ใจโบยบิน
EXTD=
EXTT0=
EXTT1=
EXTT2=
EXTT3=
EXTT4=
EXTT5=
EXTT6=
EXTT7=
EXTT8=
EXTT9=
PLAYORDER=
